<svg width="74" height="95" viewBox="0 0 74 95" fill="none" xmlns="http://www.w3.org/2000/svg">
<rect width="5" height="5" fill="white"/>
<rect x="23" width="5" height="5" fill="white"/>
<rect y="18" width="5" height="5" fill="white"/>
<rect x="23" y="18" width="5" height="5" fill="white"/>
<rect x="46" width="5" height="5" fill="white"/>
<rect x="69" width="5" height="5" fill="white"/>
<rect x="46" y="18" width="5" height="5" fill="white"/>
<rect x="69" y="18" width="5" height="5" fill="white"/>
<rect y="36" width="5" height="5" fill="white"/>
<rect x="23" y="36" width="5" height="5" fill="white"/>
<rect y="54" width="5" height="5" fill="white"/>
<rect x="23" y="54" width="5" height="5" fill="white"/>
<rect x="46" y="36" width="5" height="5" fill="white"/>
<rect x="69" y="36" width="5" height="5" fill="white"/>
<rect x="46" y="54" width="5" height="5" fill="white"/>
<rect x="69" y="54" width="5" height="5" fill="white"/>
<rect y="72" width="5" height="5" fill="white"/>
<rect x="23" y="72" width="5" height="5" fill="white"/>
<rect y="90" width="5" height="5" fill="white"/>
<rect x="23" y="90" width="5" height="5" fill="white"/>
<rect x="46" y="72" width="5" height="5" fill="white"/>
<rect x="69" y="72" width="5" height="5" fill="white"/>
<rect x="46" y="90" width="5" height="5" fill="white"/>
<rect x="69" y="90" width="5" height="5" fill="white"/>
</svg>
