<svg width="111" height="139" viewBox="0 0 111 139" fill="none" xmlns="http://www.w3.org/2000/svg">
<rect width="7" height="7" fill="#636363"/>
<rect x="26" width="7" height="7" fill="#636363"/>
<rect y="22" width="7" height="7" fill="#636363"/>
<rect x="26" y="22" width="7" height="7" fill="#636363"/>
<rect x="52" width="7" height="7" fill="#636363"/>
<rect x="78" width="7" height="7" fill="#636363"/>
<rect x="52" y="22" width="7" height="7" fill="#636363"/>
<rect x="78" y="22" width="7" height="7" fill="#636363"/>
<rect y="44" width="7" height="7" fill="#636363"/>
<rect x="26" y="44" width="7" height="7" fill="#636363"/>
<rect y="66" width="7" height="7" fill="#636363"/>
<rect x="26" y="66" width="7" height="7" fill="#636363"/>
<rect x="52" y="44" width="7" height="7" fill="#636363"/>
<rect x="78" y="44" width="7" height="7" fill="#636363"/>
<rect x="52" y="66" width="7" height="7" fill="#636363"/>
<rect x="78" y="66" width="7" height="7" fill="#636363"/>
<rect y="88" width="7" height="7" fill="#636363"/>
<rect x="26" y="88" width="7" height="7" fill="#636363"/>
<rect x="52" y="88" width="7" height="7" fill="#636363"/>
<rect x="78" y="88" width="7" height="7" fill="#636363"/>
<rect y="110" width="7" height="7" fill="#636363"/>
<rect x="26" y="110" width="7" height="7" fill="#636363"/>
<rect x="52" y="110" width="7" height="7" fill="#636363"/>
<rect x="78" y="110" width="7" height="7" fill="#636363"/>
<rect y="132" width="7" height="7" fill="#636363"/>
<rect x="26" y="132" width="7" height="7" fill="#636363"/>
<rect x="52" y="132" width="7" height="7" fill="#636363"/>
<rect x="78" y="132" width="7" height="7" fill="#636363"/>
<rect x="104" width="7" height="7" fill="#636363"/>
<rect x="104" y="22" width="7" height="7" fill="#636363"/>
<rect x="104" y="44" width="7" height="7" fill="#636363"/>
<rect x="104" y="66" width="7" height="7" fill="#636363"/>
<rect x="104" y="88" width="7" height="7" fill="#636363"/>
<rect x="104" y="110" width="7" height="7" fill="#636363"/>
<rect x="104" y="132" width="7" height="7" fill="#636363"/>
</svg>
